<svg width="21" height="21" viewBox="0 0 21 21" fill="none" xmlns="http://www.w3.org/2000/svg">
<path d="M5.5 4C4.83696 4 4.20107 4.26339 3.73223 4.73223C3.26339 5.20107 3 5.83696 3 6.5V6.75125L10.5 10.79L18 6.7525V6.5C18 5.83696 17.7366 5.20107 17.2678 4.73223C16.7989 4.26339 16.163 4 15.5 4H5.5ZM18 8.17125L10.7963 12.05C10.7052 12.099 10.6034 12.1247 10.5 12.1247C10.3966 12.1247 10.2948 12.099 10.2038 12.05L3 8.17125V14C3 14.663 3.26339 15.2989 3.73223 15.7678C4.20107 16.2366 4.83696 16.5 5.5 16.5H15.5C16.163 16.5 16.7989 16.2366 17.2678 15.7678C17.7366 15.2989 18 14.663 18 14V8.17125Z" fill="#2C3B45"/>
</svg>
